<?xml version="1.0" encoding="utf-8"?>
<!-- Generator: Adobe Illustrator 22.0.1, SVG Export Plug-In . SVG Version: 6.00 Build 0)  -->
<svg version="1.1" id="Layer_1" xmlns="http://www.w3.org/2000/svg" xmlns:xlink="http://www.w3.org/1999/xlink" x="0px" y="0px"
	 viewBox="0 0 24 24" style="enable-background:new 0 0 24 24;" xml:space="preserve">
<style type="text/css">
	.st0{fill:#FFFFFF;}
</style>
<title  id="simpleicons-facebook-icon">Facebook icon</title>
<path class="st0" d="M23,0H1.3C0.6,0,0,0.6,0,1.3v21.4C0,23.4,0.6,24,1.3,24H13v-9h-3v-4h3V8.3c0-3.1,2-4.8,5-4.8
	c1.4,0,2.7,0.1,3,0.1V7h-2.1C17.3,7,17,7.7,17,8.8V11h3.2l-0.5,4H17v9h5.7c0.7,0,1.3-0.6,1.3-1.3V1.3C24,0.6,23.4,0,22.7,0"/>
</svg>
