<?xml version="1.0" encoding="utf-8"?>
<!-- Generator: Adobe Illustrator 22.0.1, SVG Export Plug-In . SVG Version: 6.00 Build 0)  -->
<svg version="1.1" id="Layer_1" xmlns="http://www.w3.org/2000/svg" xmlns:xlink="http://www.w3.org/1999/xlink" x="0px" y="0px"
	 viewBox="0 0 24 15.2" style="enable-background:new 0 0 24 15.2;" xml:space="preserve">
<style type="text/css">
	.st0{fill:#FFFFFF;}
</style>
<title  id="simpleicons-googleplus-icon">Google+ icon</title>
<path class="st0" d="M7.6,6.5v2.6H12c-0.2,1.1-1.3,3.3-4.3,3.3C5.1,12.4,3,10.2,3,7.6c0-2.7,2.1-4.8,4.7-4.8c1.5,0,2.5,0.6,3,1.2
	l2.1-2c-1.3-1.2-3.1-2-5.1-2C3.4,0,0,3.4,0,7.6s3.4,7.6,7.6,7.6c4.4,0,7.3-3.1,7.3-7.5c0-0.5-0.1-0.9-0.1-1.3
	C14.8,6.5,7.6,6.5,7.6,6.5z M24,6.5h-2.2V4.3h-2.2v2.2h-2.2v2.2h2.2v2.2h2.2V8.7H24"/>
</svg>
